<?xml version="1.0" encoding="UTF-8"?>
<svg id="Layer_1" data-name="Layer 1" xmlns="http://www.w3.org/2000/svg" viewBox="0 0 312 314">
  <defs>
    <style>
      .cls-1 {
        fill: #fff;
        stroke-width: 0px;
      }
    </style>
  </defs>
  <path class="cls-1" d="m275.56,209.45l-4.15-1.3,31.25-41.59v-31.69h-50.54l26.21-26.84c16.53-17.3,27.54-33.09,27.54-53.92,0-36.45-30.13-53.12-58.25-53.25h0s-.07,0-.1,0c-.07,0-.15,0-.22,0-8.49,0-16.43,1.38-23.68,4.03-.37.13-.73.27-1.1.41-.17.06-.33.12-.49.18-15.39,5.89-27.43,17.09-33.08,31.66-.05.09-.09.17-.14.26l.03.02c-2.22,5.81-3.44,12.14-3.44,18.9h37.27c4.93-11.22,11.98-17.31,25.12-17.31,11.17,0,18.66,7.09,18.66,17.65,0,8.82-7.03,17.31-17.77,28.89l-57.93,58.49v28.78h66.52l-27.9,34.7v26.49h19.27c14.16,0,22.96,8.74,22.96,20.71s-8.8,20.29-22.96,20.29c-11.66,0-20.75-5.4-24.97-14.62h-.03s0,0,0,0h-38.24c0,17.09,8.59,31.25,21.98,40.59,10.05,7.27,22.76,11.45,37.39,12.08.26.01.53.03.79.04.8.02,1.6.04,2.41.05.16,0,.32,0,.48,0h0c.06,0,.12,0,.18,0,28.65,0,62.11-14.81,62.11-56.54,0-22.14-12.87-40.13-35.19-47.15Z"/>
  <polygon class="cls-1" points="127.11 134.87 42.43 134.87 42.43 5.85 1.25 5.85 1.25 307.61 42.43 307.61 42.43 172.81 127.11 172.81 127.11 307.61 168.29 307.61 168.29 5.85 127.11 5.85 127.11 134.87"/>
</svg>