<?xml version="1.0" encoding="UTF-8"?>
<svg id="Layer_1" xmlns="http://www.w3.org/2000/svg" viewBox="0 0 1940 2008">
  <defs>
    <style>
      .cls-1 {
        fill: #fff;
      }
    </style>
  </defs>
  <path class="cls-1" d="M755.5,51.51h237.02v1896.13h-237.02v-867.48H248.29v867.48H11.27V51.51h237.02v801.11h507.21V51.51ZM1670.38,1286.37l215.68-244.13v-189.61h-405.3c139.84-97.18,412.41-251.24,407.67-497.73-4.74-208.57-149.32-341.3-376.86-341.3s-379.23,146.95-369.74,379.23h232.28c-9.48-101.92,54.51-156.43,142.21-156.43s135.1,45.03,137.47,118.51c4.74,154.06-184.87,215.68-507.21,535.66v189.61h464.55l-227.54,251.24,90.07,125.62h49.77c90.07,0,170.65,47.4,170.65,154.06,0,90.07-61.62,151.69-158.8,151.69-106.66,0-180.13-61.62-170.65-158.8h-232.28c-9.48,232.28,156.43,381.6,402.93,381.6s393.45-158.8,393.45-374.48c0-161.17-97.18-279.68-258.35-324.71Z"/>
</svg>